C:\Users\Nicos\Documents\OpenSimProjects\SprintingProject\Study1\PredictiveResults\IC_pred_Sprinting_optimum_28-October-2023__10-02-52_p02_maxVel_01___HTD_Plus_6_GRF.mot
version=1
nRows=4
nColumns=127
inDegrees=yes
endheader
time	ground_force_vx	ground_force_vy	ground_force_vz	ground_force_px	ground_force_py	ground_force_pz	ground_torque_x	ground_torque_y	ground_torque_z	1_ground_force_vx	1_ground_force_vy	1_ground_force_vz	1_ground_force_px	1_ground_force_py	1_ground_force_pz	1_ground_torque_x	1_ground_torque_y	1_ground_torque_z	2_ground_force_vx	2_ground_force_vy	2_ground_force_vz	2_ground_force_px	2_ground_force_py	2_ground_force_pz	2_ground_torque_x	2_ground_torque_y	2_ground_torque_z	3_ground_force_vx	3_ground_force_vy	3_ground_force_vz	3_ground_force_px	3_ground_force_py	3_ground_force_pz	3_ground_torque_x	3_ground_torque_y	3_ground_torque_z	4_ground_force_vx	4_ground_force_vy	4_ground_force_vz	4_ground_force_px	4_ground_force_py	4_ground_force_pz	4_ground_torque_x	4_ground_torque_y	4_ground_torque_z	5_ground_force_vx	5_ground_force_vy	5_ground_force_vz	5_ground_force_px	5_ground_force_py	5_ground_force_pz	5_ground_torque_x	5_ground_torque_y	5_ground_torque_z	6_ground_force_vx	6_ground_force_vy	6_ground_force_vz	6_ground_force_px	6_ground_force_py	6_ground_force_pz	6_ground_torque_x	6_ground_torque_y	6_ground_torque_z	7_ground_force_vx	7_ground_force_vy	7_ground_force_vz	7_ground_force_px	7_ground_force_py	7_ground_force_pz	7_ground_torque_x	7_ground_torque_y	7_ground_torque_z	8_ground_force_vx	8_ground_force_vy	8_ground_force_vz	8_ground_force_px	8_ground_force_py	8_ground_force_pz	8_ground_torque_x	8_ground_torque_y	8_ground_torque_z	9_ground_force_vx	9_ground_force_vy	9_ground_force_vz	9_ground_force_px	9_ground_force_py	9_ground_force_pz	9_ground_torque_x	9_ground_torque_y	9_ground_torque_z	10_ground_force_vx	10_ground_force_vy	10_ground_force_vz	10_ground_force_px	10_ground_force_py	10_ground_force_pz	10_ground_torque_x	10_ground_torque_y	10_ground_torque_z	11_ground_force_vx	11_ground_force_vy	11_ground_force_vz	11_ground_force_px	11_ground_force_py	11_ground_force_pz	11_ground_torque_x	11_ground_torque_y	11_ground_torque_z	12_ground_force_vx	12_ground_force_vy	12_ground_force_vz	12_ground_force_px	12_ground_force_py	12_ground_force_pz	12_ground_torque_x	12_ground_torque_y	12_ground_torque_z	13_ground_force_vx	13_ground_force_vy	13_ground_force_vz	13_ground_force_px	13_ground_force_py	13_ground_force_pz	13_ground_torque_x	13_ground_torque_y	13_ground_torque_z
0.215055	-0.000000	0.000000	-0.000000	1.021281	0.235544	0.368466	0.000000	0.000000	0.000000	-0.000000	0.000000	-0.000000	1.046812	0.253334	0.391908	0.000000	0.000000	0.000000	-0.000000	0.000000	-0.000000	1.065692	0.262864	0.389185	0.000000	0.000000	0.000000	-0.000000	0.000000	-0.000000	1.063742	0.261846	0.366634	0.000000	0.000000	0.000000	-0.000000	0.000000	-0.000000	1.112694	0.298210	0.424088	0.000000	0.000000	0.000000	-0.000000	0.000000	-0.000000	1.081870	0.275363	0.385529	0.000000	0.000000	0.000000	-0.000000	0.000000	-0.000000	1.146581	0.325360	0.370905	0.000000	0.000000	0.000000	-0.000000	0.000000	-0.000000	2.243276	0.068635	0.234581	0.000000	0.000000	0.000000	-0.000000	0.000000	-0.000000	2.206824	0.078911	0.207822	0.000000	0.000000	0.000000	-0.000000	0.000000	-0.000000	2.174482	0.084589	0.213987	0.000000	0.000000	0.000000	-0.000000	0.000000	-0.000000	2.173567	0.082248	0.236207	0.000000	0.000000	0.000000	-0.000000	0.000000	-0.000000	2.105232	0.107441	0.174739	0.000000	0.000000	0.000000	-0.000000	0.000000	-0.000000	2.147834	0.091420	0.215768	0.000000	0.000000	0.000000	-0.000000	0.000000	-0.000000	2.041238	0.118745	0.222892	0.000000	0.000000	0.000000
0.216555	-0.000000	0.000000	-0.000000	1.040367	0.239921	0.368764	0.000000	0.000000	0.000000	-0.000000	0.000000	-0.000000	1.066360	0.257556	0.392167	0.000000	0.000000	0.000000	-0.000000	0.000000	-0.000000	1.085445	0.266871	0.389585	0.000000	0.000000	0.000000	-0.000000	0.000000	-0.000000	1.083439	0.265862	0.367038	0.000000	0.000000	0.000000	-0.000000	0.000000	-0.000000	1.133132	0.302008	0.424406	0.000000	0.000000	0.000000	-0.000000	0.000000	-0.000000	1.101838	0.279298	0.385901	0.000000	0.000000	0.000000	-0.000000	0.000000	-0.000000	1.167410	0.329005	0.371164	0.000000	0.000000	0.000000	-0.000000	0.000000	-0.000000	2.267218	0.066357	0.235913	0.000000	0.000000	0.000000	-0.000000	0.000000	-0.000000	2.230578	0.076387	0.209035	0.000000	0.000000	0.000000	-0.000000	0.000000	-0.000000	2.198317	0.082008	0.215086	0.000000	0.000000	0.000000	-0.000000	0.000000	-0.000000	2.197467	0.079768	0.237350	0.000000	0.000000	0.000000	-0.000000	0.000000	-0.000000	2.128619	0.104364	0.175490	0.000000	0.000000	0.000000	-0.000000	0.000000	-0.000000	2.171549	0.088728	0.216769	0.000000	0.000000	0.000000	-0.000000	0.000000	-0.000000	2.064477	0.115609	0.223502	0.000000	0.000000	0.000000
0.217210	-0.000000	0.000000	-0.000000	1.048780	0.241802	0.368905	0.000000	0.000000	0.000000	-0.000000	0.000000	-0.000000	1.074971	0.259370	0.392288	0.000000	0.000000	0.000000	-0.000000	0.000000	-0.000000	1.094142	0.268592	0.389768	0.000000	0.000000	0.000000	-0.000000	0.000000	-0.000000	1.092110	0.267585	0.367222	0.000000	0.000000	0.000000	-0.000000	0.000000	-0.000000	1.142123	0.303639	0.424547	0.000000	0.000000	0.000000	-0.000000	0.000000	-0.000000	1.110626	0.280987	0.386069	0.000000	0.000000	0.000000	-0.000000	0.000000	-0.000000	1.176562	0.330569	0.371274	0.000000	0.000000	0.000000	-0.000000	0.000000	-0.000000	2.277512	0.065362	0.236475	0.000000	0.000000	0.000000	-0.000000	0.000000	-0.000000	2.240797	0.075291	0.209550	0.000000	0.000000	0.000000	-0.000000	0.000000	-0.000000	2.208587	0.080895	0.215545	0.000000	0.000000	0.000000	-0.000000	0.000000	-0.000000	2.207763	0.078698	0.237828	0.000000	0.000000	0.000000	-0.000000	0.000000	-0.000000	2.138705	0.103041	0.175801	0.000000	0.000000	0.000000	-0.000000	0.000000	-0.000000	2.181769	0.087568	0.217187	0.000000	0.000000	0.000000	-0.000000	0.000000	-0.000000	2.074500	0.114262	0.223751	0.000000	0.000000	0.000000
0.219280	-0.000000	0.000000	-0.000000	1.075671	0.247618	0.369402	0.000000	0.000000	0.000000	-0.000000	0.000000	-0.000000	1.102479	0.264978	0.392708	0.000000	0.000000	0.000000	-0.000000	0.000000	-0.000000	1.121901	0.273906	0.390374	0.000000	0.000000	0.000000	-0.000000	0.000000	-0.000000	1.119783	0.272908	0.367835	0.000000	0.000000	0.000000	-0.000000	0.000000	-0.000000	1.170785	0.308679	0.424995	0.000000	0.000000	0.000000	-0.000000	0.000000	-0.000000	1.138660	0.286205	0.386621	0.000000	0.000000	0.000000	-0.000000	0.000000	-0.000000	1.205696	0.335401	0.371609	0.000000	0.000000	0.000000	-0.000000	0.000000	-0.000000	2.309389	0.062215	0.238173	0.000000	0.000000	0.000000	-0.000000	0.000000	-0.000000	2.272467	0.071855	0.211112	0.000000	0.000000	0.000000	-0.000000	0.000000	-0.000000	2.240483	0.077432	0.216914	0.000000	0.000000	0.000000	-0.000000	0.000000	-0.000000	2.239735	0.075368	0.239249	0.000000	0.000000	0.000000	-0.000000	0.000000	-0.000000	2.170063	0.098940	0.176719	0.000000	0.000000	0.000000	-0.000000	0.000000	-0.000000	2.213520	0.083964	0.218426	0.000000	0.000000	0.000000	-0.000000	0.000000	-0.000000	2.105666	0.110094	0.224473	0.000000	0.000000	0.000000
